Source: Amores.Perros.2000.720p.BluRay.x264-CiNEFiLE

Subs: Bulgarian, Danish, Dutch, English, Finnish, French, Greek, Italian, Persian, Polish, Portuguese, Spanish, Swedish, Turkish and Vietnamese.

Sample and Screens included.

General
Complete name                    : Amores Perros-720p MP4 AAC x264 BRRip 2000-CC.mp4
Format                           : MPEG-4
Format profile                   : Base Media
Codec ID                         : isom
File size                        : 2.96 GiB
Duration                         : 2h 34mn
Overall bit rate                 : 2 749 Kbps
Encoded date                     : UTC 2012-05-24 10:34:29

Video
ID                               : 1
Format                           : AVC
Format/Info                      : Advanced Video Codec
Format profile                   : High@L3.1
Format settings, CABAC           : Yes
Format settings, ReFrames        : 5 frames
Codec ID                         : avc1
Codec ID/Info                    : Advanced Video Coding
Duration                         : 2h 34mn
Bit rate mode                    : Variable
Bit rate                         : 2 360 Kbps
Nominal bit rate                 : 2 414 Kbps
Maximum bit rate                 : 21.0 Mbps
Width                            : 1 280 pixels
Height                           : 720 pixels
Display aspect ratio             : 16:9
Frame rate mode                  : Variable
Frame rate                       : 23.976 fps
Minimum frame rate               : 19.133 fps
Maximum frame rate               : 24.390 fps
Resolution                       : 24 bits
Colorimetry                      : 4:2:0
Scan type                        : Progressive
Bits/(Pixel*Frame)               : 0.107
Stream size                      : 2.54 GiB (86%)
Writing library                  : x264 core 112

Audio
ID                               : 2
Format                           : AAC
Format/Info                      : Advanced Audio Codec
Format version                   : Version 4
Format profile                   : LC
Format settings, SBR             : No
Codec ID                         : 40
Duration                         : 2h 34mn
Bit rate mode                    : Variable
Bit rate                         : 384 Kbps
Maximum bit rate                 : 580 Kbps
Channel(s)                       : 6 channels
Channel positions                : Front: L C R, Rear: L R, LFE
Sampling rate                    : 48.0 KHz
Resolution                       : 16 bits
Stream size                      : 423 MiB (14%)
Language                         : Spanish

Enjoy...

Requested by DreamExtractor.